<?xml version="1.0" ?><svg enable-background="new 0 0 24 24" viewBox="0 0 24 24" xmlns="http://www.w3.org/2000/svg"><path d="M23 2h-22c-.552 0-1-.448-1-1s.448-1 1-1h22c.553 0 1 .448 1 1s-.447 1-1 1zm0 5h-22c-.552 0-1-.448-1-1s.448-1 1-1h22c.553 0 1 .448 1 1s-.447 1-1 1zm-10 5h-12c-.552 0-1-.448-1-1s.448-1 1-1h12c.553 0 1 .448 1 1s-.447 1-1 1zm-5 5h-7c-.552 0-1-.447-1-1s.448-1 1-1h7c.552 0 1 .447 1 1s-.448 1-1 1zm15 0h-10c-.552 0-1-.447-1-1s.448-1 1-1h10c.553 0 1 .447 1 1s-.447 1-1 1zm-5 5c-.553 0-1-.447-1-1v-10c0-.552.447-1 1-1s1 .448 1 1v10c0 .553-.447 1-1 1z"/></svg>