<svg style="position: absolute; width: 0; height: 0; overflow: hidden;" version="1.1" xmlns="http://www.w3.org/2000/svg" xmlns:xlink="http://www.w3.org/1999/xlink">
    <defs>


        <symbol id="add-icon" viewBox="0 0 26 28">
            <title>add-icon</title>
            <path d="M23 2h-22c-.552 0-1-.448-1-1s.448-1 1-1h22c.553 0 1 .448 1 1s-.447 1-1 1zm0 5h-22c-.552 0-1-.448-1-1s.448-1 1-1h22c.553 0 1 .448 1 1s-.447 1-1 1zm-10 5h-12c-.552 0-1-.448-1-1s.448-1 1-1h12c.553 0 1 .448 1 1s-.447 1-1 1zm-5 5h-7c-.552 0-1-.447-1-1s.448-1 1-1h7c.552 0 1 .447 1 1s-.448 1-1 1zm15 0h-10c-.552 0-1-.447-1-1s.448-1 1-1h10c.553 0 1 .447 1 1s-.447 1-1 1zm-5 5c-.553 0-1-.447-1-1v-10c0-.552.447-1 1-1s1 .448 1 1v10c0 .553-.447 1-1 1z"/>
        </symbol>



    </defs>
</svg>